# xmcd
#
# Track frame offsets:
#	150
#	13928
#	30345
#	57893
#	85727
#	106795
#	122362
#	146025
#	157111
#	174456
#	203110
#
# Disc length: 2952 seconds
#
# Revision: 0
# Processed by: cddbd v1.5.2PL0 Copyright (c) Steve Scherf et al.
# Submitted via: dBpowerAMP V4.0
#
DISCID=870b860b
DTITLE=Ricky Skaggs and Bruce Hornsby - Ricky Skaggs and Bruce Hornsby
DYEAR=1900
DGENRE=Bluegrass
TTITLE0=The Dreaded Spoon
TTITLE1=Gulf Of Mexico Fishing Boat Blues
TTITLE2=Across The Rocky Mountains
TTITLE3=Mandolin Rain
TTITLE4=Stubb
TTITLE5=Come On Out
TTITLE6=A Night On The Town
TTITLE7=Sheep Shell Corn
TTITLE8=Hills Of
TTITLE9=Crown Of Jewels
TTITLE10=Super Freak
EXTD=
EXTT0=
EXTT1=
EXTT2=
EXTT3=
EXTT4=
EXTT5=
EXTT6=
EXTT7=
EXTT8=
EXTT9=
EXTT10=
PLAYORDER=
